<?xml version="1.0" encoding="utf-8"?>
<!-- Generator: Adobe Illustrator 27.3.1, SVG Export Plug-In . SVG Version: 6.00 Build 0)  -->
<svg version="1.1" id="Calque_1" xmlns="http://www.w3.org/2000/svg" xmlns:xlink="http://www.w3.org/1999/xlink" x="0px" y="0px"
	 viewBox="0 0 300 50.1" style="enable-background:new 0 0 300 50.1;" xml:space="preserve">
<style type="text/css">
	.st0{fill:#FFFFFF;}
</style>
<path class="st0" d="M155.1,16.4c1.9-0.4,3.4-1.3,4.6-2.8c1.1-1.5,1.7-3.2,1.7-5c0-1.4-0.4-2.7-1.1-3.9c-0.8-1.2-1.8-2.1-3.1-2.8
	c-1.3-0.7-2.8-1.1-4.3-1.1h-13.1v7.1c0,1.2,1,2.2,2.1,2.2c1.2,0,2.1-1,2.1-2.2V4.1h8.3c1.3,0,2.5,0.5,3.4,1.5c1,1,1.4,2.1,1.4,3.3
	c0,1.3-0.5,2.4-1.5,3.4c-0.9,0.9-2.1,1.3-3.3,1.3h-1.8l0,3.3l7.1,11c0.4,0.6,1.1,1,1.8,1c1.7,0,2.7-1.9,1.8-3.3L155.1,16.4z
	 M192.9,14.2c-1.2-0.6-2.7-1.2-4.7-1.8c-2.1-0.7-3.6-1.3-4.6-1.9c-1-0.6-1.5-1.4-1.5-2.3c0-1.4,0.7-2.5,2-3.2
	c1.3-0.7,2.9-1.1,4.6-1.1c1.1,0,2.2,0.2,3.4,0.5c0.6,0.2,1.1,0.4,1.6,0.6c0.8,0.4,1.8,0,2.2-0.8c0.4-0.8,0.1-1.9-0.7-2.3
	c-0.7-0.4-1.5-0.7-2.4-0.9c-1.5-0.4-3-0.6-4.5-0.6c-2.9,0-5.4,0.6-7.5,1.9c-2.1,1.3-3.1,3.2-3.1,5.8c0,1.4,0.4,2.6,1.2,3.5
	c0.8,0.9,1.7,1.7,2.8,2.3c1.1,0.6,2.5,1.2,4.4,1.9c1.5,0.6,2.7,1,3.6,1.5c0.9,0.4,1.6,0.9,2.2,1.6c0.7,0.7,1,1.7,0.8,2.9
	c-0.2,1.2-0.9,2.2-1.9,2.8c-1.3,0.8-2.7,1.2-4.5,1.2c-1.1,0-2.5-0.3-4.1-0.8c-0.8-0.3-1.6-0.6-2.2-0.9c-1-0.5-2.1-0.1-2.6,0.8
	c-0.5,1-0.2,2.3,0.9,2.7c0.9,0.4,1.9,0.8,3,1.1c1.9,0.5,3.7,0.8,5.5,0.8c2,0,3.8-0.4,5.4-1.1c1.6-0.7,2.9-1.8,3.8-3.1
	c0.9-1.3,1.4-2.9,1.4-4.7c0-1.5-0.4-2.8-1.3-3.8C195.1,15.6,194.1,14.8,192.9,14.2z M247.1,0.1c-8.1,0-14.7,6.6-14.7,14.7
	c0,8.1,6.6,14.7,14.7,14.7c8.1,0,14.7-6.6,14.7-14.7C261.8,6.7,255.2,0.1,247.1,0.1z M247.1,25.3c-5.8,0-10.5-4.7-10.5-10.5
	c0-5.8,4.7-10.5,10.5-10.5c5.8,0,10.5,4.7,10.5,10.5C257.6,20.6,252.9,25.3,247.1,25.3z M46,1.4L34.9,12.5L23.7,1.4
	C23.5,1.2,23.3,1,23,0.9c-0.5-0.2-1.1-0.2-1.7,0c-0.5,0.2-1,0.6-1.2,1.2C20.1,2.4,20,2.7,20,2.9v23.7c0,1.2,1,2.2,2.2,2.2
	c1.2,0,2.2-1,2.2-2.2V8.2l9,9c0.4,0.4,1,0.6,1.5,0.6s1.1-0.2,1.5-0.6L49.1,4.5c0.8-0.9,0.8-2.2,0-3.1C48.2,0.5,46.9,0.5,46,1.4z
	 M47.6,24.6c-1.2,0-2.2,1-2.2,2.2c0,1.2,1,2.2,2.2,2.2c1.2,0,2.2-1,2.2-2.2C49.7,25.5,48.8,24.6,47.6,24.6z M125.1,24.5h-15.7
	c-1.2,0-2.2,1-2.2,2.2c0,1.2,1,2.2,2.2,2.2h15.7c1.2,0,2.2-1,2.2-2.2C127.2,25.5,126.3,24.5,125.1,24.5z M125.1,12.7h-15.7
	c-1.2,0-2.2,1-2.2,2.2c0,1.2,1,2.2,2.2,2.2h15.7c1.2,0,2.2-1,2.2-2.2C127.2,13.6,126.3,12.7,125.1,12.7z M125.1,0.8h-15.7
	c-1.2,0-2.2,1-2.2,2.2c0,1.2,1,2.2,2.2,2.2h15.7c1.2,0,2.2-1,2.2-2.2C127.2,1.7,126.3,0.8,125.1,0.8z M89.8,24.6
	c-1.2,0-2.2,1-2.2,2.2c0,1.2,1,2.2,2.2,2.2c1.2,0,2.2-1,2.2-2.2C91.9,25.5,91,24.6,89.8,24.6z M88.2,1.4L77.1,12.5L65.9,1.4
	c-0.2-0.2-0.4-0.4-0.7-0.5c-0.5-0.2-1.1-0.2-1.7,0c-0.5,0.2-1,0.6-1.2,1.2c-0.1,0.3-0.2,0.5-0.2,0.8v23.7c0,1.2,1,2.2,2.2,2.2
	c1.2,0,2.2-1,2.2-2.2V8.2l9,9c0.4,0.4,1,0.6,1.5,0.6c0.6,0,1.1-0.2,1.5-0.6L91.3,4.5c0.8-0.9,0.8-2.2,0-3.1
	C90.5,0.5,89.1,0.5,88.2,1.4z M299.5,12.6V5.1c0-2.4-1.9-4.4-4.4-4.4v11.9c0,0,0,0,0,0v8.7l-7.3-7.3v0L275.2,1.4
	c-0.2-0.2-0.4-0.4-0.7-0.5c-0.5-0.2-1.1-0.2-1.7,0c-0.5,0.2-1,0.6-1.2,1.2c-0.1,0.3-0.2,0.5-0.2,0.8v8.4c0,1.2,1,2.2,2.2,2.2
	c1.2,0,2.2-1,2.2-2.2V8.2l7.3,7.3l1.7,1.7l10.8,10.8c0.3,0.4,0.6,0.6,1.1,0.8c0.1,0,0.1,0,0.2,0.1c0.1,0,0.1,0,0.2,0
	c0.1,0,0.2,0,0.3,0c0,0,0,0,0,0c0.6,0,1.1-0.2,1.5-0.6c0.4-0.4,0.6-0.9,0.6-1.5L299.5,12.6C299.5,12.6,299.5,12.6,299.5,12.6z
	 M273.5,24.6c-1.2,0-2.2,1-2.2,2.2c0,1.2,1,2.2,2.2,2.2s2.2-1,2.2-2.2C275.7,25.5,274.7,24.6,273.5,24.6z M214.7,5.1v21.6
	c0,1.2,1,2.2,2.2,2.2c1.2,0,2.2-1,2.2-2.2V0.8C216.6,0.8,214.7,2.7,214.7,5.1z M0.5,5.1v21.6c0,1.2,1,2.2,2.2,2.2
	c1.2,0,2.2-1,2.2-2.2V0.8C2.4,0.8,0.5,2.7,0.5,5.1z"/>
<path class="st0" d="M24.2,48.4h1.3v-8.9h-1.3V48.4z M35,44.2c-0.2,0.5-0.5,1.2-0.6,1.5c-0.1-0.4-0.4-1-0.6-1.5l-2-4.7h-1.4v8.9h1.3
	v-4.7c0-0.5,0-1.3,0-1.6c0.1,0.3,0.4,0.9,0.6,1.4l2.1,5l2.2-5c0.2-0.5,0.5-1.1,0.6-1.4c0,0.3,0,1,0,1.6v4.7h1.3v-8.9h-1.4L35,44.2z
	 M45.8,39.5l-3.2,8.9H44l0.7-2.1h3.6l0.7,2.1h1.4l-3.2-8.9H45.8z M45.2,45.1l0.7-2c0.2-0.7,0.5-1.7,0.6-2.1c0.1,0.4,0.5,1.4,0.7,2
	l0.7,2H45.2z M58.4,45.2h1.4v0c0,1-0.6,2-2,2c-1.5,0-2.4-1.3-2.4-3.3c0-2,0.9-3.3,2.4-3.3c0.9,0,1.4,0.3,1.9,1.1l1.2-0.7
	c-0.6-1.1-1.6-1.7-3-1.7c-2.3,0-3.8,1.9-3.8,4.6s1.5,4.6,3.8,4.6c2,0,3.4-1.3,3.4-3.6v-1h-2.8V45.2z M65.7,48.4h1.3v-8.9h-1.3V48.4z
	 M77.4,44.1c0,0.5,0,1.8,0,2.1c-0.1-0.2-0.5-0.9-0.7-1.3l-3.4-5.4H72v8.9h1.3v-4.6c0-0.5,0-1.7,0-2.1c0.1,0.2,0.4,0.8,0.7,1.1
	l3.5,5.6h1.3v-8.9h-1.3V44.1z M86.2,39.5L83,48.4h1.4l0.7-2.1h3.6l0.7,2.1h1.4l-3.2-8.9H86.2z M85.5,45.1l0.7-2
	c0.2-0.7,0.5-1.7,0.6-2.1c0.1,0.4,0.5,1.4,0.7,2l0.7,2H85.5z M104.3,48.4h1.3v-8.9h-1.3V48.4z M113.9,39.4c-2.2,0-3.8,1.8-3.8,4.6
	c0,2.8,1.5,4.6,3.8,4.6c2.3,0,3.8-1.8,3.8-4.6C117.7,41.2,116.2,39.4,113.9,39.4z M114,47.2c-1.4,0-2.5-1.3-2.5-3.3
	c0-2,1-3.3,2.4-3.3c1.4,0,2.5,1.3,2.5,3.3C116.4,46,115.4,47.2,114,47.2z M127.6,44.1c0,0.5,0,1.8,0,2.1c-0.1-0.2-0.5-0.9-0.7-1.3
	l-3.4-5.4h-1.4v8.9h1.3v-4.6c0-0.5,0-1.7,0-2.1c0.1,0.2,0.4,0.8,0.7,1.1l3.5,5.6h1.3v-8.9h-1.3V44.1z M133.3,50h0.9l1-3.4h-1.7
	L133.3,50z M145.5,48.4h1.3v-8.9h-1.3V48.4z M157.3,44.1c0,0.5,0,1.8,0,2.1c-0.1-0.2-0.5-0.9-0.7-1.3l-3.4-5.4h-1.4v8.9h1.3v-4.6
	c0-0.5,0-1.7,0-2.1c0.1,0.2,0.4,0.8,0.7,1.1l3.5,5.6h1.3v-8.9h-1.3V44.1z M190.8,42.2c0-1.8-1.3-2.7-2.9-2.7H184v8.9h1.3v-3.5h2
	l1.8,3.5h1.5l-1.8-3.6C190,44.5,190.8,43.6,190.8,42.2z M187.9,43.6h-2.6v-2.9h2.6c0.9,0,1.5,0.5,1.5,1.4
	C189.4,43.2,188.8,43.6,187.9,43.6z M197.8,39.5l-3.2,8.9h1.4l0.7-2.1h3.6l0.7,2.1h1.4l-3.2-8.9H197.8z M197.1,45.1l0.7-2
	c0.2-0.7,0.5-1.7,0.6-2.1c0.1,0.4,0.5,1.4,0.7,2l0.7,2H197.1z M209.8,47.2c-1.5,0-2.4-1.3-2.4-3.3c0-2,0.8-3.3,2.4-3.3
	c0.9,0,1.4,0.3,1.8,1.1l1.2-0.7c-0.6-1.1-1.6-1.7-3-1.7c-2.3,0-3.8,1.9-3.8,4.6s1.5,4.6,3.8,4.6c1.3,0,2.4-0.6,3.1-1.7l-1.1-0.7
	C211.3,46.8,210.7,47.2,209.8,47.2z M227.5,48.4h1.3v-8.9h-1.3V48.4z M237.1,39.4c-2.2,0-3.8,1.8-3.8,4.6c0,2.8,1.5,4.6,3.8,4.6
	c2.3,0,3.8-1.8,3.8-4.6C240.9,41.2,239.3,39.4,237.1,39.4z M237.1,47.2c-1.4,0-2.5-1.3-2.5-3.3c0-2,1-3.3,2.4-3.3
	c1.4,0,2.5,1.3,2.5,3.3C239.5,46,238.5,47.2,237.1,47.2z M250.7,44.1c0,0.5,0,1.8,0,2.1c-0.1-0.2-0.5-0.9-0.7-1.3l-3.4-5.4h-1.4v8.9
	h1.3v-4.6c0-0.5,0-1.7,0-2.1c0.1,0.2,0.4,0.8,0.7,1.1l3.5,5.6h1.3v-8.9h-1.3V44.1z M261.4,46.5c-0.5,0-1,0.5-1,1c0,0.5,0.5,1,1,1
	c0.5,0,1-0.5,1-1C262.4,47,261.9,46.5,261.4,46.5z M267.2,46.5c-0.5,0-1,0.5-1,1c0,0.5,0.5,1,1,1c0.5,0,1-0.5,1-1
	C268.2,47,267.7,46.5,267.2,46.5z M272.9,46.5c-0.5,0-1,0.5-1,1c0,0.5,0.5,1,1,1c0.5,0,1-0.5,1-1C273.9,47,273.5,46.5,272.9,46.5z
	 M162.8,40.6h6.5v-1.1h-6.5V40.6z M165.4,48.4h1.3v-5.3h-1.3V48.4z M179.4,39.5h-5.7v1.1h5.7V39.5z M175,44.3h2.6v-1.2h-3.9v5.3h5.9
	v-1.3H175V44.3z M96,48.4h1.3v-5.3H96V48.4z M93.5,40.6h6.5v-1.1h-6.5V40.6z M216.6,40.6h6.5v-1.1h-6.5V40.6z M219.2,48.4h1.3v-5.3
	h-1.3V48.4z"/>
</svg>
