<?xml version="1.0" encoding="UTF-8" standalone="no"?>
<!-- Created with Inkscape (http://www.inkscape.org/) -->

<svg
   width="142.97702mm"
   height="16.271mm"
   viewBox="0 0 142.97736 16.271037"
   version="1.1"
   id="svg5"
   xmlns="http://www.w3.org/2000/svg"
   xmlns:svg="http://www.w3.org/2000/svg">
  <defs
     id="defs2" />
  <g
     id="layer1"
     transform="translate(-34.941094,-100.7482)">
    <g
       aria-label="zshcommaassistant"
       id="text242"
       style="font-size:14.0078px;line-height:1.25;font-family:'CMU Serif';-inkscape-font-specification:'CMU Serif';stroke-width:0.187604">
      <path
         d="m 38.953154,113.16034 h 4.209524 l -0.158037,1.02724 h -5.531285 v -0.91231 l 4.195157,-5.60312 h -3.864717 v -1.04879 h 5.315781 v 0.93386 z"
         style="font-family:'Fira Code';-inkscape-font-specification:'Fira Code';fill:#ffffff;fill-opacity:1"
         id="path402" />
      <path
         d="m 48.636501,113.35429 q 0.876386,0 1.37923,-0.32325 0.502844,-0.32326 0.502844,-0.87639 0,-0.33762 -0.129303,-0.58905 -0.122119,-0.25142 -0.510028,-0.45256 -0.387908,-0.20832 -1.192458,-0.40945 -0.783001,-0.19396 -1.364863,-0.44538 -0.574679,-0.25861 -0.897936,-0.66807 -0.316073,-0.40945 -0.316073,-1.06315 0,-0.95541 0.797367,-1.50853 0.797367,-0.55313 2.076028,-0.55313 0.912302,0 1.58755,0.24424 0.682431,0.24423 1.156542,0.58904 l -0.531578,0.81892 q -0.423826,-0.29452 -0.948221,-0.48129 -0.517211,-0.19396 -1.249926,-0.19396 -0.890753,0 -1.264294,0.28016 -0.373542,0.27297 -0.373542,0.71116 0,0.33763 0.179588,0.56032 0.18677,0.2155 0.624963,0.3879 0.438193,0.17241 1.206826,0.38073 0.739899,0.20114 1.293028,0.47411 0.553128,0.27297 0.854835,0.71835 0.308889,0.43819 0.308889,1.14217 0,0.80455 -0.459743,1.3074 -0.459743,0.49566 -1.192459,0.72553 -0.725532,0.22269 -1.537266,0.22269 -1.027239,0 -1.752771,-0.29453 -0.718348,-0.3017 -1.206826,-0.72553 l 0.689615,-0.79737 q 0.445376,0.36636 1.020055,0.59623 0.581863,0.22269 1.249927,0.22269 z"
         style="font-family:'Fira Code';-inkscape-font-specification:'Fira Code';fill:#ffffff;fill-opacity:1"
         id="path404" />
      <path
         d="m 55.891829,103.46263 v 4.19516 q 0.445376,-0.58905 1.09189,-0.89076 0.653698,-0.3017 1.321762,-0.3017 1.106257,0 1.616285,0.58904 0.510027,0.58905 0.510027,1.63784 v 5.49537 h -1.206826 v -5.46664 q 0,-0.68243 -0.316073,-0.99132 -0.316074,-0.31607 -0.991321,-0.31607 -0.43101,0 -0.818918,0.19395 -0.387908,0.19396 -0.696798,0.4813 -0.30889,0.28734 -0.510028,0.58904 v 5.50974 h -1.206826 v -10.59565 z"
         style="font-family:'Fira Code';-inkscape-font-specification:'Fira Code';fill:#ffffff;fill-opacity:1"
         id="path406" />
      <path
         d="m 66.724535,113.31119 q 0.567495,0 1.055972,-0.17959 0.495661,-0.18677 0.912303,-0.48129 l 0.589046,0.79018 q -0.49566,0.42383 -1.192459,0.66807 -0.696798,0.24424 -1.364862,0.24424 -1.127808,0 -1.925175,-0.4813 -0.790183,-0.48847 -1.206826,-1.36486 -0.416642,-0.88357 -0.416642,-2.06884 0,-1.13499 0.416642,-2.03293 0.416643,-0.89794 1.21401,-1.41515 0.797367,-0.52439 1.932358,-0.52439 1.443881,0 2.528587,0.87638 l -0.589046,0.80455 q -0.984137,-0.67524 -1.953908,-0.67524 -0.976954,0 -1.609101,0.7399 -0.632147,0.73271 -0.632147,2.22688 0,1.51571 0.632147,2.19814 0.632147,0.67525 1.609101,0.67525 z"
         style="font-family:'Fira Code';-inkscape-font-specification:'Fira Code';fill:#5daaff;fill-opacity:1"
         id="path408" />
      <path
         d="m 74.805963,106.46533 q 1.601918,0 2.420835,1.07034 0.818918,1.07034 0.818918,2.86621 0,1.15654 -0.373542,2.04729 -0.373541,0.89076 -1.099073,1.40078 -0.725532,0.50285 -1.781505,0.50285 -1.601918,0 -2.428019,-1.07753 -0.826101,-1.07752 -0.826101,-2.85902 0,-1.16373 0.373542,-2.05448 0.373541,-0.89794 1.099073,-1.3936 0.732716,-0.50284 1.795872,-0.50284 z m 0,0.98414 q -0.976954,0 -1.479798,0.72553 -0.495661,0.72553 -0.495661,2.24125 0,1.50134 0.488477,2.22688 0.495661,0.71835 1.472615,0.71835 0.976954,0 1.465431,-0.72554 0.495661,-0.72553 0.495661,-2.23406 0,-1.50853 -0.488477,-2.22688 -0.488477,-0.72553 -1.458248,-0.72553 z"
         style="font-family:'Fira Code';-inkscape-font-specification:'Fira Code';fill:#5daaff;fill-opacity:1"
         id="path410" />
      <path
         d="m 85.530914,106.46533 q 0.359175,0 0.696799,0.15803 0.337624,0.15804 0.553128,0.6106 0.215505,0.45256 0.215505,1.32176 v 5.63186 h -1.120624 v -5.4379 q 0,-0.71117 -0.0862,-1.02724 -0.0862,-0.31608 -0.495661,-0.31608 -0.337624,0 -0.675248,0.21551 -0.337623,0.20832 -0.646513,0.68961 v 5.8761 h -1.127808 v -5.4379 q 0,-0.71117 -0.0862,-1.02724 -0.0862,-0.31608 -0.49566,-0.31608 -0.351991,0 -0.682432,0.21551 -0.33044,0.20832 -0.63933,0.68961 v 5.8761 h -1.11344 v -7.56422 h 0.94822 l 0.07184,0.87639 q 0.30889,-0.43819 0.689614,-0.73272 0.387909,-0.3017 0.955404,-0.3017 0.43101,0 0.811734,0.20832 0.380725,0.20114 0.560312,0.79018 0.30889,-0.44537 0.696799,-0.71835 0.387908,-0.28015 0.96977,-0.28015 z"
         style="font-family:'Fira Code';-inkscape-font-specification:'Fira Code';fill:#5daaff;fill-opacity:1"
         id="path412" />
      <path
         d="m 94.151108,106.46533 q 0.359174,0 0.696798,0.15803 0.337624,0.15804 0.553129,0.6106 0.215504,0.45256 0.215504,1.32176 v 5.63186 h -1.120624 v -5.4379 q 0,-0.71117 -0.0862,-1.02724 -0.0862,-0.31608 -0.49566,-0.31608 -0.337624,0 -0.675248,0.21551 -0.337624,0.20832 -0.646514,0.68961 v 5.8761 h -1.127807 v -5.4379 q 0,-0.71117 -0.0862,-1.02724 -0.0862,-0.31608 -0.495661,-0.31608 -0.351991,0 -0.682431,0.21551 -0.330441,0.20832 -0.63933,0.68961 v 5.8761 h -1.113441 v -7.56422 h 0.94822 l 0.07184,0.87639 q 0.30889,-0.43819 0.689615,-0.73272 0.387908,-0.3017 0.955404,-0.3017 0.431009,0 0.811734,0.20832 0.380725,0.20114 0.560312,0.79018 0.30889,-0.44537 0.696798,-0.71835 0.387908,-0.28015 0.969771,-0.28015 z"
         style="font-family:'Fira Code';-inkscape-font-specification:'Fira Code';fill:#5daaff;fill-opacity:1"
         id="path414" />
      <path
         d="m 103.2023,112.53537 q 0,0.45975 0.15086,0.66807 0.15085,0.20832 0.46692,0.30171 l -0.29452,0.84765 q -0.48848,-0.0647 -0.85483,-0.30889 -0.36636,-0.25143 -0.53158,-0.75427 -0.40946,0.5244 -1.02724,0.79737 -0.61059,0.26579 -1.34331,0.26579 -1.134991,0 -1.788688,-0.63933 -0.653698,-0.63933 -0.653698,-1.69531 0,-1.1709 0.912303,-1.79587 0.912303,-0.62496 2.636343,-0.62496 h 1.11344 v -0.63215 q 0,-0.81892 -0.4813,-1.15654 -0.47411,-0.34481 -1.32176,-0.34481 -0.373539,0 -0.876383,0.0934 -0.502844,0.0862 -1.09189,0.29452 l -0.316074,-0.9123 q 0.689615,-0.25861 1.300211,-0.36636 0.61778,-0.10775 1.170906,-0.10775 1.40797,0 2.11913,0.66088 0.71116,0.66088 0.71116,1.7815 z m -3.12481,0.89794 q 0.56031,0 1.06316,-0.28016 0.51002,-0.28734 0.84765,-0.79018 v -1.94672 h -1.09189 q -1.249929,0 -1.767141,0.43101 -0.510027,0.431 -0.510027,1.15654 0,1.42951 1.458248,1.42951 z"
         style="font-family:'Fira Code';-inkscape-font-specification:'Fira Code';fill:#5daaff;fill-opacity:1"
         id="path416" />
      <path
         d="m 111.82249,112.53537 q 0,0.45975 0.15086,0.66807 0.15085,0.20832 0.46692,0.30171 l -0.29452,0.84765 q -0.48848,-0.0647 -0.85483,-0.30889 -0.36636,-0.25143 -0.53158,-0.75427 -0.40946,0.5244 -1.02724,0.79737 -0.6106,0.26579 -1.34331,0.26579 -1.13499,0 -1.78869,-0.63933 -0.6537,-0.63933 -0.6537,-1.69531 0,-1.1709 0.9123,-1.79587 0.91231,-0.62496 2.63634,-0.62496 h 1.11345 v -0.63215 q 0,-0.81892 -0.4813,-1.15654 -0.47411,-0.34481 -1.32176,-0.34481 -0.37354,0 -0.87639,0.0934 -0.50284,0.0862 -1.09189,0.29452 l -0.31607,-0.9123 q 0.68962,-0.25861 1.30021,-0.36636 0.61778,-0.10775 1.17091,-0.10775 1.40796,0 2.11913,0.66088 0.71116,0.66088 0.71116,1.7815 z m -3.12481,0.89794 q 0.56031,0 1.06315,-0.28016 0.51003,-0.28734 0.84766,-0.79018 v -1.94672 h -1.09189 q -1.24993,0 -1.76714,0.43101 -0.51003,0.431 -0.51003,1.15654 0,1.42951 1.45825,1.42951 z"
         style="font-family:'Fira Code';-inkscape-font-specification:'Fira Code';fill:#ffffff;fill-opacity:1"
         id="path418" />
      <path
         d="m 116.89012,113.35429 q 0.87638,0 1.37923,-0.32325 0.50284,-0.32326 0.50284,-0.87639 0,-0.33762 -0.1293,-0.58905 -0.12212,-0.25142 -0.51003,-0.45256 -0.38791,-0.20832 -1.19246,-0.40945 -0.783,-0.19396 -1.36486,-0.44538 -0.57468,-0.25861 -0.89794,-0.66807 -0.31607,-0.40945 -0.31607,-1.06315 0,-0.95541 0.79737,-1.50853 0.79736,-0.55313 2.07602,-0.55313 0.91231,0 1.58756,0.24424 0.68243,0.24423 1.15654,0.58904 l -0.53158,0.81892 q -0.42383,-0.29452 -0.94822,-0.48129 -0.51721,-0.19396 -1.24993,-0.19396 -0.89075,0 -1.26429,0.28016 -0.37354,0.27297 -0.37354,0.71116 0,0.33763 0.17958,0.56032 0.18677,0.2155 0.62497,0.3879 0.43819,0.17241 1.20682,0.38073 0.7399,0.20114 1.29303,0.47411 0.55313,0.27297 0.85484,0.71835 0.30889,0.43819 0.30889,1.14217 0,0.80455 -0.45975,1.3074 -0.45974,0.49566 -1.19246,0.72553 -0.72553,0.22269 -1.53726,0.22269 -1.02724,0 -1.75277,-0.29453 -0.71835,-0.3017 -1.20683,-0.72553 l 0.68961,-0.79737 q 0.44538,0.36636 1.02006,0.59623 0.58186,0.22269 1.24993,0.22269 z"
         style="font-family:'Fira Code';-inkscape-font-specification:'Fira Code';fill:#ffffff;fill-opacity:1"
         id="path420" />
      <path
         d="m 124.36588,113.35429 q 0.87639,0 1.37923,-0.32325 0.50285,-0.32326 0.50285,-0.87639 0,-0.33762 -0.12931,-0.58905 -0.12212,-0.25142 -0.51002,-0.45256 -0.38791,-0.20832 -1.19246,-0.40945 -0.783,-0.19396 -1.36487,-0.44538 -0.57467,-0.25861 -0.89793,-0.66807 -0.31607,-0.40945 -0.31607,-1.06315 0,-0.95541 0.79736,-1.50853 0.79737,-0.55313 2.07603,-0.55313 0.9123,0 1.58755,0.24424 0.68243,0.24423 1.15654,0.58904 l -0.53158,0.81892 q -0.42382,-0.29452 -0.94822,-0.48129 -0.51721,-0.19396 -1.24992,-0.19396 -0.89076,0 -1.2643,0.28016 -0.37354,0.27297 -0.37354,0.71116 0,0.33763 0.17959,0.56032 0.18677,0.2155 0.62496,0.3879 0.4382,0.17241 1.20683,0.38073 0.7399,0.20114 1.29303,0.47411 0.55312,0.27297 0.85483,0.71835 0.30889,0.43819 0.30889,1.14217 0,0.80455 -0.45974,1.3074 -0.45975,0.49566 -1.19246,0.72553 -0.72553,0.22269 -1.53727,0.22269 -1.02724,0 -1.75277,-0.29453 -0.71835,-0.3017 -1.20682,-0.72553 l 0.68961,-0.79737 q 0.44538,0.36636 1.02006,0.59623 0.58186,0.22269 1.24992,0.22269 z"
         style="font-family:'Fira Code';-inkscape-font-specification:'Fira Code';fill:#ffffff;fill-opacity:1"
         id="path422" />
      <path
         d="m 132.24435,103.08191 q 0.40227,0 0.63933,0.24423 0.24424,0.24424 0.24424,0.59623 0,0.36636 -0.24424,0.61778 -0.23706,0.24424 -0.63933,0.24424 -0.38073,0 -0.62496,-0.24424 -0.24424,-0.25142 -0.24424,-0.61778 0,-0.35199 0.24424,-0.59623 0.24423,-0.24423 0.62496,-0.24423 z m 0.96259,3.54145 v 6.60881 h 2.13349 v 0.95541 h -5.67495 v -0.95541 h 2.33463 v -5.6534 h -2.2628 v -0.95541 z"
         style="font-family:'Fira Code';-inkscape-font-specification:'Fira Code';fill:#ffffff;fill-opacity:1"
         id="path424" />
      <path
         d="m 139.50637,113.35429 q 0.87639,0 1.37923,-0.32325 0.50284,-0.32326 0.50284,-0.87639 0,-0.33762 -0.1293,-0.58905 -0.12212,-0.25142 -0.51003,-0.45256 -0.38791,-0.20832 -1.19246,-0.40945 -0.783,-0.19396 -1.36486,-0.44538 -0.57468,-0.25861 -0.89793,-0.66807 -0.31608,-0.40945 -0.31608,-1.06315 0,-0.95541 0.79737,-1.50853 0.79737,-0.55313 2.07603,-0.55313 0.9123,0 1.58755,0.24424 0.68243,0.24423 1.15654,0.58904 l -0.53158,0.81892 q -0.42382,-0.29452 -0.94822,-0.48129 -0.51721,-0.19396 -1.24993,-0.19396 -0.89075,0 -1.26429,0.28016 -0.37354,0.27297 -0.37354,0.71116 0,0.33763 0.17959,0.56032 0.18677,0.2155 0.62496,0.3879 0.43819,0.17241 1.20683,0.38073 0.73989,0.20114 1.29302,0.47411 0.55313,0.27297 0.85484,0.71835 0.30889,0.43819 0.30889,1.14217 0,0.80455 -0.45975,1.3074 -0.45974,0.49566 -1.19245,0.72553 -0.72554,0.22269 -1.53727,0.22269 -1.02724,0 -1.75277,-0.29453 -0.71835,-0.3017 -1.20683,-0.72553 l 0.68962,-0.79737 q 0.44537,0.36636 1.02005,0.59623 0.58187,0.22269 1.24993,0.22269 z"
         style="font-family:'Fira Code';-inkscape-font-specification:'Fira Code';fill:#ffffff;fill-opacity:1"
         id="path426" />
      <path
         d="m 150.70129,113.80685 q -0.38791,0.25861 -0.94103,0.40228 -0.55313,0.14367 -1.08471,0.14367 -1.22119,0 -1.88207,-0.63933 -0.66089,-0.63933 -0.66089,-1.64502 v -4.51123 h -1.7384 v -0.93386 h 1.7384 v -1.71685 l 1.20683,-0.14367 v 1.86052 h 2.61479 l -0.14367,0.93386 h -2.47112 v 4.49686 q 0,0.63215 0.33044,0.96259 0.33762,0.33044 1.11344,0.33044 0.42383,0 0.783,-0.10057 0.35918,-0.10057 0.66807,-0.25861 z"
         style="font-family:'Fira Code';-inkscape-font-specification:'Fira Code';fill:#ffffff;fill-opacity:1"
         id="path428" />
      <path
         d="m 158.21874,112.53537 q 0,0.45975 0.15085,0.66807 0.15086,0.20832 0.46693,0.30171 l -0.29452,0.84765 q -0.48848,-0.0647 -0.85484,-0.30889 -0.36636,-0.25143 -0.53158,-0.75427 -0.40945,0.5244 -1.02723,0.79737 -0.6106,0.26579 -1.34332,0.26579 -1.13499,0 -1.78869,-0.63933 -0.65369,-0.63933 -0.65369,-1.69531 0,-1.1709 0.9123,-1.79587 0.9123,-0.62496 2.63634,-0.62496 h 1.11344 v -0.63215 q 0,-0.81892 -0.48129,-1.15654 -0.47411,-0.34481 -1.32176,-0.34481 -0.37355,0 -0.87639,0.0934 -0.50284,0.0862 -1.09189,0.29452 l -0.31607,-0.9123 q 0.68961,-0.25861 1.30021,-0.36636 0.61778,-0.10775 1.17091,-0.10775 1.40796,0 2.11912,0.66088 0.71117,0.66088 0.71117,1.7815 z m -3.12482,0.89794 q 0.56032,0 1.06316,-0.28016 0.51003,-0.28734 0.84765,-0.79018 v -1.94672 h -1.09189 q -1.24993,0 -1.76714,0.43101 -0.51002,0.431 -0.51002,1.15654 0,1.42951 1.45824,1.42951 z"
         style="font-family:'Fira Code';-inkscape-font-specification:'Fira Code';fill:#ffffff;fill-opacity:1"
         id="path430" />
      <path
         d="m 161.15954,114.18758 v -7.56422 h 1.02724 l 0.0934,1.04879 q 0.45974,-0.58186 1.14936,-0.89075 0.68961,-0.31607 1.35049,-0.31607 1.11344,0 1.61629,0.58904 0.51003,0.58905 0.51003,1.63784 v 5.49537 h -1.20683 v -4.60462 q 0,-0.77582 -0.0862,-1.24993 -0.0862,-0.47411 -0.36636,-0.69679 -0.27297,-0.22269 -0.84047,-0.22269 -0.44537,0 -0.84047,0.19395 -0.3879,0.19396 -0.69679,0.48848 -0.30171,0.28734 -0.50285,0.58186 v 5.50974 z"
         style="font-family:'Fira Code';-inkscape-font-specification:'Fira Code';fill:#ffffff;fill-opacity:1"
         id="path432" />
      <path
         d="m 175.45003,113.80685 q -0.38791,0.25861 -0.94104,0.40228 -0.55313,0.14367 -1.08471,0.14367 -1.22119,0 -1.88207,-0.63933 -0.66088,-0.63933 -0.66088,-1.64502 v -4.51123 h -1.73841 v -0.93386 h 1.73841 v -1.71685 l 1.20682,-0.14367 v 1.86052 h 2.61479 l -0.14367,0.93386 h -2.47112 v 4.49686 q 0,0.63215 0.33044,0.96259 0.33763,0.33044 1.11344,0.33044 0.42383,0 0.783,-0.10057 0.35918,-0.10057 0.66807,-0.25861 z"
         style="font-family:'Fira Code';-inkscape-font-specification:'Fira Code';fill:#ffffff;fill-opacity:1"
         id="path434" />
    </g>
  </g>
</svg>
